# xmcd
# 
# Track frame offsets:
#     150
#     16674
#     37980
#     54490
# 
# Disc length: 1009
# 
# Revision: 0
# Processed by: cddbd v1.5.2PL0 Copyright (c) Steve Scherf et al.
# Submitted via: BonkEnc v1.0.8
# 
DISCID=2203ef04
DTITLE=板野友美 - Dear　J
DYEAR=2011
DGENRE=Pop
TTITLE0=Dear　J
TTITLE1=Thank　you
TTITLE2=Dear　J <OFF　VOCAL　VER>
TTITLE3=Thank　you<OFF　VOCAL　VER>
EXTD=
EXTT0=
EXTT1=
EXTT2=
EXTT3=
PLAYORDER=
